<svg width="84" height="84" viewBox="0 0 84 84" fill="none" xmlns="http://www.w3.org/2000/svg">
<circle cx="42" cy="42" r="42" fill="white"/>
<path d="M50.8448 21.0007L50.7623 21V26.0909L47.2355 22.4911L47.1892 22.5391C46.3139 23.4563 45.7747 24.7093 45.7747 26.0909C45.7747 28.9025 48.0077 31.1818 50.7623 31.1818C53.5169 31.1818 55.7499 28.9025 55.7499 26.0909C55.7499 23.3074 53.5613 21.0456 50.8448 21.0007Z" fill="#5745DE"/>
<path d="M42.0341 51.5455C46.166 51.5455 49.5155 48.1265 49.5155 43.9091C49.5155 39.6916 46.166 36.2727 42.0341 36.2727C37.9023 36.2727 34.5527 39.6916 34.5527 43.9091C34.5527 48.1265 37.9023 51.5455 42.0341 51.5455Z" fill="#5745DE"/>
<path fill-rule="evenodd" clip-rule="evenodd" d="M63.2313 27.3635C64.6085 27.3635 65.7251 28.5031 65.7251 29.9089C65.7251 31.2852 64.655 32.4064 63.3177 32.4529L60.2708 37.1178L60.2375 37.1681C59.5512 38.1835 58.4263 38.798 57.2179 38.8175L57.1584 38.818L53.4653 38.8178C53.8113 39.626 54.0774 40.478 54.2535 41.3633L62.106 41.3635L62.1463 41.3628C62.5345 41.3501 62.8949 41.1532 63.1207 40.8306L63.1435 40.7967L66.0773 36.3049C65.8536 35.9233 65.7251 35.4769 65.7251 34.9998C65.7251 33.594 66.8416 32.4544 68.2189 32.4544C69.5962 32.4544 70.7127 33.594 70.7127 34.9998C70.7127 36.39 69.6208 37.5199 68.2647 37.5449L65.2185 42.2087L65.1851 42.259C64.4989 43.2744 63.3739 43.8889 62.1655 43.9085L62.106 43.9089L54.5029 43.9088C54.503 44.7807 54.4171 45.6321 54.2535 46.4546L62.106 46.4544C63.3369 46.4544 64.4876 47.0723 65.1851 48.1044L65.2185 48.1546L68.2647 52.8184C69.6208 52.8434 70.7127 53.9733 70.7127 55.3635C70.7127 56.7693 69.5962 57.9089 68.2189 57.9089C66.8416 57.9089 65.7251 56.7693 65.7251 55.3635C65.7251 54.8864 65.8536 54.4401 66.0773 54.0584L63.1435 49.5666C62.9197 49.2239 62.5479 49.0137 62.1463 49.0005L62.106 48.9998L53.4653 49C53.0763 49.9088 52.5863 50.7622 52.0099 51.5455L57.1184 51.5453C58.3493 51.5453 59.5 52.1632 60.1975 53.1953L60.2309 53.2455L63.2771 57.9094C64.6332 57.9343 65.7251 59.0642 65.7251 60.4544C65.7251 61.8602 64.6085 62.9998 63.2313 62.9998C61.854 62.9998 60.7375 61.8602 60.7375 60.4544C60.7375 59.9774 60.866 59.531 61.0897 59.1493L58.1559 54.6575C57.9321 54.3148 57.5603 54.1046 57.1587 54.0914L57.1184 54.0908L49.5162 54.091C47.4321 55.6892 44.8414 56.6362 42.0339 56.6362C39.2265 56.6362 36.6358 55.6892 34.5517 54.091L27.0342 54.0908L26.9939 54.0914C26.6057 54.1042 26.2453 54.3011 26.0196 54.6237L25.9967 54.6575L23.063 59.1495C23.2866 59.5311 23.4152 59.9774 23.4152 60.4544C23.4152 61.8602 22.2986 62.9998 20.9213 62.9998C19.5441 62.9998 18.4275 61.8602 18.4275 60.4544C18.4275 59.0642 19.5194 57.9342 20.8756 57.9094L23.9217 53.2455L23.9551 53.1953C24.6413 52.1799 25.7663 51.5653 26.9747 51.5458L27.0342 51.5453L32.058 51.5455C31.4815 50.7622 30.9916 49.9088 30.6025 49L22.0466 48.9998L22.0063 49.0005C21.6181 49.0133 21.2577 49.2101 21.032 49.5328L21.0091 49.5666L18.0754 54.0586C18.299 54.4401 18.4275 54.8865 18.4275 55.3635C18.4275 56.7693 17.311 57.9089 15.9337 57.9089C14.5565 57.9089 13.4399 56.7693 13.4399 55.3635C13.4399 53.9733 14.5318 52.8433 15.888 52.8184L18.9341 48.1546L18.9675 48.1044C19.6537 47.089 20.7787 46.4744 21.9871 46.4549L22.0466 46.4544L29.8144 46.4546C29.6604 45.6804 29.5753 44.8808 29.5658 44.0626L29.5649 43.9088L22.0466 43.9089C20.8157 43.9089 19.665 43.291 18.9675 42.259L18.9341 42.2087L15.888 37.5449C14.5318 37.52 13.4399 36.3901 13.4399 34.9998C13.4399 33.594 14.5565 32.4544 15.9337 32.4544C17.311 32.4544 18.4275 33.594 18.4275 34.9998C18.4275 35.4768 18.299 35.9232 18.0754 36.3048L21.0091 40.7967C21.2329 41.1394 21.6047 41.3496 22.0063 41.3628L22.0466 41.3635L29.8144 41.3633C29.9905 40.478 30.2566 39.626 30.6025 38.8178L26.9942 38.818C25.7634 38.818 24.6126 38.2001 23.9152 37.1681L23.8818 37.1178L20.8349 32.4529C19.4976 32.4064 18.4275 31.2852 18.4275 29.9089C18.4275 28.5031 19.5441 27.3635 20.9213 27.3635C22.2986 27.3635 23.4152 28.5031 23.4152 29.9089C23.4152 30.3993 23.2793 30.8574 23.0439 31.2459L25.9567 35.7058C26.1805 36.0485 26.5524 36.2587 26.954 36.2719L26.9942 36.2726L32.058 36.2723C34.3329 33.1811 37.9546 31.1817 42.0339 31.1817C46.1132 31.1817 49.735 33.1811 52.0099 36.2723L57.1584 36.2726L57.1986 36.2719C57.5869 36.2591 57.9473 36.0623 58.173 35.7396L58.1959 35.7058L61.1087 31.2459C60.8733 30.8574 60.7375 30.3993 60.7375 29.9089C60.7375 28.5031 61.854 27.3635 63.2313 27.3635ZM42.0339 33.7274C36.5248 33.7274 32.0587 38.286 32.0587 43.9092C32.0587 49.5325 36.5248 54.0911 42.0339 54.0911C47.5431 54.0911 52.0091 49.5325 52.0091 43.9092C52.0091 38.286 47.5431 33.7274 42.0339 33.7274Z" fill="#5745DE"/>
<path d="M33.3055 21V26.0909L36.8323 22.4911C37.7348 23.4124 38.2931 24.6851 38.2931 26.0909C38.2931 28.9025 36.0601 31.1818 33.3055 31.1818C30.5509 31.1818 28.3179 28.9025 28.3179 26.0909C28.3179 23.3074 30.5065 21.0456 33.223 21.0007L33.3055 21Z" fill="#5745DE"/>
</svg>
