<svg width="24" height="24" viewBox="0 0 24 24" fill="none" xmlns="http://www.w3.org/2000/svg">
<path fill-rule="evenodd" clip-rule="evenodd" d="M7.23671 6.62724V3.96189C7.23671 3.96189 7.24413 3.82228 6.97113 3.76009C6.74383 3.70932 6.52642 3.8667 6.52642 3.8667L1.92865 7.19966C1.92865 7.19966 1.5 7.42558 1.5 7.86853C1.5 8.3026 1.80388 8.47902 1.80388 8.47902L6.42882 11.7244C6.42882 11.7244 6.72158 11.8336 6.97111 11.7803C7.24041 11.7219 7.23794 11.5201 7.23794 11.5201V9.02479H11.7344C11.7344 9.02479 15.2797 9.51217 15.2797 10.8563C15.2797 10.8563 15.2216 6.62724 11.6208 6.62724H7.2367L7.23671 6.62724ZM16.7769 17.3775V20.0441C16.7769 20.0441 16.8251 20.2066 17.1141 20.2459C17.3068 20.2713 17.4279 20.171 17.4699 20.1406L22.0701 16.8038C22.0701 16.8038 22.5 16.5792 22.5 16.1349C22.5 15.7009 22.1949 15.5232 22.1949 15.5232L17.5687 12.2753C17.5687 12.2753 17.376 12.156 17.1141 12.2258C16.7905 12.3121 16.7769 12.4796 16.7769 12.4796V14.9774H12.2569C12.2569 14.9774 8.70793 14.49 8.70793 13.1421C8.70793 13.1421 8.76723 17.375 12.3718 17.375H16.7769L16.7769 17.3775Z" fill="#5745DE"/>
</svg>
