<?xml version="1.0" encoding="UTF-8"?>
<svg width="18px" height="18px" viewBox="0 0 18 18" version="1.1" xmlns="http://www.w3.org/2000/svg" xmlns:xlink="http://www.w3.org/1999/xlink">
    <title>1.通用/2.Icon图标/Line/Changeright</title>
    <defs>
        <linearGradient x1="100%" y1="100%" x2="0%" y2="0%" id="linearGradient-1">
            <stop stop-color="#FE3876" offset="0%"></stop>
            <stop stop-color="#7C30DD" offset="71.4447846%"></stop>
            <stop stop-color="#3A30DD" offset="100%"></stop>
        </linearGradient>
    </defs>
    <g id="DVM" stroke="none" stroke-width="1" fill="none" fill-rule="evenodd">
        <g id="转账确认2" transform="translate(-711.000000, -318.000000)">
            <g id="1.通用/2.Icon图标/Line/Change" transform="translate(708.000000, 315.000000)">
                <rect id="矩形" fill="#000000" fill-rule="nonzero" opacity="0" x="0" y="0" width="24" height="24"></rect>
                <path d="M12,3 C16.9705627,3 21,7.02943725 21,12 C21,16.9705627 16.9705627,21 12,21 C7.02943725,21 3,16.9705627 3,12 C3,7.02943725 7.02943725,3 12,3 Z M12.2743866,8.29603458 C12.202934,8.26740647 12.0511694,8.22394693 11.864111,8.27042451 C11.6618312,8.32070473 11.5806686,8.40056137 11.5482422,8.4533832 L11.5482422,8.4533832 L11.5280916,8.50016957 L11.5268757,10.8353116 L6.75,10.8352432 L6.75,13.069542 L11.5268757,13.0701149 L11.5268829,15.5580935 L11.5303943,15.5665888 L11.5685984,15.6205821 C11.6124207,15.6668147 11.6989417,15.7252436 11.8641182,15.7462008 C12.0568241,15.769862 12.1778824,15.6764 12.219883,15.6480065 L12.219883,15.6480065 L16.8201176,12.5377307 L16.8872867,12.4985416 C17.0081911,12.4202376 17.25,12.2248102 17.25,11.9142562 C17.25,11.6108001 17.078371,11.44177 16.9925564,11.376221 L16.9925564,11.376221 L12.3186987,8.31656403 Z" id="形状结合" fill="url(#linearGradient-1)"></path>
            </g>
        </g>
    </g>
</svg>