<?xml version="1.0" encoding="UTF-8"?>
<svg width="98px" height="26px" viewBox="0 0 98 26" version="1.1" xmlns="http://www.w3.org/2000/svg" xmlns:xlink="http://www.w3.org/1999/xlink">
    <title>编组</title>
    <g id="DVM" stroke="none" stroke-width="1" fill="none" fill-rule="evenodd">
        <g id="其他网络" transform="translate(-217.000000, -195.000000)">
            <g id="编组" transform="translate(217.000000, 195.000000)">
                <rect id="矩形" fill="#EC3783" x="0" y="0" width="98" height="26" rx="10"></rect>
                <path d="M33.1261897,7.42424242 C33.6552436,7.42424242 34.0841265,7.85839055 34.0841265,8.39393939 C34.0841265,8.91823281 33.6730814,9.34534292 33.1594106,9.36306416 L31.989015,11.14017 L31.9761876,11.1593167 C31.7125888,11.5461361 31.280459,11.7802442 30.8162908,11.7876954 L29.3748355,11.7878049 C29.5077297,12.0956871 29.6099499,12.4202406 29.6775862,12.7575072 L32.7094232,12.7573237 C32.8585476,12.7524604 32.9969845,12.6774616 33.0837014,12.554557 L33.0924859,12.5416728 L34.2194372,10.8304937 C34.1335114,10.6851174 34.0841265,10.5150634 34.0841265,10.3333333 C34.0841265,9.79778448 34.5130094,9.36363636 35.0420632,9.36363636 C35.5711171,9.36363636 36,9.79778448 36,10.3333333 C36,10.8629306 35.5805966,11.2933683 35.059664,11.3028699 L33.8895375,13.0795639 L33.8767101,13.0987106 C33.6131112,13.48553 33.1809815,13.7196381 32.7168132,13.7270894 L29.7733869,13.7272242 C29.773411,14.059385 29.7404241,14.3836982 29.6775862,14.6970382 L32.6939601,14.6969697 C33.166768,14.6969697 33.6087899,14.9323711 33.8767101,15.3255318 L33.8895375,15.3446785 L35.059664,17.1213725 C35.5805966,17.1308741 36,17.5613119 36,18.0909091 C36,18.6264579 35.5711171,19.0606061 35.0420632,19.0606061 C34.5130094,19.0606061 34.0841265,18.6264579 34.0841265,18.0909091 C34.0841265,17.909179 34.1335114,17.739125 34.2194372,17.5937487 L33.0924859,15.8825696 C33.0065192,15.7520365 32.8636898,15.6719497 32.7094232,15.6669187 L29.3748355,15.6667406 C29.2254049,16.0129338 29.0371917,16.3380486 28.8157553,16.6364576 L30.7780865,16.6363636 C31.2508944,16.6363636 31.6929164,16.871765 31.9608365,17.2649257 L31.9736639,17.2840724 L33.1437904,19.0607664 C33.6647231,19.0702681 34.0841265,19.5007058 34.0841265,20.030303 C34.0841265,20.5658519 33.6552436,21 33.1261897,21 C32.5971358,21 32.1682529,20.5658519 32.1682529,20.030303 C32.1682529,19.8485729 32.2176378,19.678519 32.3035636,19.5331426 L31.1766123,17.8219635 C31.0906456,17.6914304 30.9478163,17.6113437 30.7935497,17.6063126 L27.8578689,17.6061636 C27.0573022,18.2149842 26.0621353,18.5757576 24.9837271,18.5757576 C23.905319,18.5757576 22.910152,18.2149842 22.1095853,17.6061636 L19.2064503,17.6063126 C19.0573259,17.611176 18.918889,17.6861747 18.8321722,17.8090793 L18.8233877,17.8219635 L17.696465,19.5331912 C17.7823732,19.6785568 17.8317471,19.8485932 17.8317471,20.030303 C17.8317471,20.5658519 17.4028642,21 16.8738103,21 C16.3447564,21 15.9158735,20.5658519 15.9158735,20.030303 C15.9158735,19.5006906 16.335301,19.0702434 16.8562543,19.0607656 L18.0263361,17.2840724 L18.0391635,17.2649257 C18.3027623,16.8781063 18.7348921,16.6439983 19.1990603,16.636547 L21.1516989,16.6364576 C20.9302625,16.3380486 20.7420493,16.0129338 20.5926187,15.6667406 L17.2905768,15.6669187 C17.1414524,15.671782 17.0030155,15.7467808 16.9162987,15.8696854 L16.9075141,15.8825696 L15.7805915,17.5937972 C15.8664996,17.7391629 15.9158735,17.9091992 15.9158735,18.0909091 C15.9158735,18.6264579 15.4869906,19.0606061 14.9579368,19.0606061 C14.4288829,19.0606061 14,18.6264579 14,18.0909091 C14,17.5612967 14.4194274,17.1308495 14.9403808,17.1213717 L16.1104626,15.3446785 L16.12329,15.3255318 C16.3868888,14.9387124 16.8190186,14.7046043 17.2831867,14.6971531 L17.3060399,14.6969697 L20.289868,14.6970382 C20.2307264,14.40213 20.1980274,14.0975015 20.1943851,13.7857992 L20.1940433,13.7272241 L17.3060399,13.7272727 C16.833232,13.7272727 16.3912101,13.4918714 16.12329,13.0987106 L16.1104626,13.0795639 L14.9403808,11.3028707 C14.4194274,11.293393 14,10.8629457 14,10.3333333 C14,9.79778448 14.4288829,9.36363636 14.9579368,9.36363636 C15.4869906,9.36363636 15.9158735,9.79778448 15.9158735,10.3333333 C15.9158735,10.5150432 15.8664996,10.6850796 15.7805915,10.8304452 L16.9075141,12.5416728 C16.9934808,12.6722059 17.1363102,12.7522927 17.2905768,12.7573237 L20.289868,12.7575072 C20.3575043,12.4202406 20.4597246,12.0956871 20.5926187,11.7878049 L19.2065624,11.7878788 C18.7337545,11.7878788 18.2917325,11.5524774 18.0238124,11.1593167 L18.010985,11.14017 L16.8405902,9.36306419 C16.326919,9.34534339 15.9158735,8.91823311 15.9158735,8.39393939 C15.9158735,7.85839055 16.3447564,7.42424242 16.8738103,7.42424242 C17.4028642,7.42424242 17.8317471,7.85839055 17.8317471,8.39393939 C17.8317471,8.58076255 17.7795553,8.75524601 17.6891262,8.9032641 L18.8080366,10.6022789 C18.8940033,10.732812 19.0368326,10.8128988 19.1910993,10.8179298 L19.2065624,10.8181818 L21.1516989,10.8180879 C22.0255392,9.64049602 23.4167587,8.87878788 24.9837271,8.87878788 C26.5506955,8.87878788 27.941915,9.64049602 28.8157553,10.8180879 L30.7934376,10.8181818 L30.8089007,10.8179298 C30.9580251,10.8130665 31.096462,10.7380677 31.1831789,10.6151631 L31.1919634,10.6022789 L32.3108738,8.9032641 C32.2204447,8.75524601 32.1682529,8.58076255 32.1682529,8.39393939 C32.1682529,7.85839055 32.5971358,7.42424242 33.1261897,7.42424242 Z M24.9837271,9.84848485 C22.8675116,9.84848485 21.15198,11.5850773 21.15198,13.7272727 C21.15198,15.8694681 22.8675116,17.6060606 24.9837271,17.6060606 C27.0999426,17.6060606 28.8154742,15.8694681 28.8154742,13.7272727 C28.8154742,11.5850773 27.0999426,9.84848485 24.9837271,9.84848485 Z M24.9837271,10.8181818 C26.5708887,10.8181818 27.8575374,12.1206262 27.8575374,13.7272727 C27.8575374,15.3339193 26.5708887,16.6363636 24.9837271,16.6363636 C23.3965655,16.6363636 22.1099168,15.3339193 22.1099168,13.7272727 C22.1099168,12.1206262 23.3965655,10.8181818 24.9837271,10.8181818 Z M28.3681883,5.00025982 C29.4116831,5.0173862 30.2523794,5.87900722 30.2523794,6.93939394 C30.2523794,8.01049164 29.3946136,8.87878788 28.3365058,8.87878788 C27.2783981,8.87878788 26.4206323,8.01049164 26.4206323,6.93939394 C26.4206323,6.41307869 26.627743,5.93573059 26.963964,5.58630748 L26.9817787,5.56803534 L28.3365058,6.93939394 L28.3365058,5 L28.3681883,5.00025982 Z M21.6309484,5 L21.6309484,6.93939394 L22.9856756,5.56803534 C23.3323805,5.91899661 23.546822,6.40384509 23.546822,6.93939394 C23.546822,8.01049164 22.6890562,8.87878788 21.6309484,8.87878788 C20.5728407,8.87878788 19.7150749,8.01049164 19.7150749,6.93939394 C19.7150749,5.87900722 20.5557712,5.0173862 21.599266,5.00025982 L21.6309484,5 Z" id="形状结合" fill="#FFFFFF" fill-rule="nonzero"></path>
                <text id="dvm" font-family="PingFangSC-Regular, PingFang SC" font-size="16" font-weight="normal" fill="#FFFFFF">
                    <tspan x="41" y="19"> DSM</tspan>
                </text>
            </g>
        </g>
    </g>
</svg>