<?xml version="1.0" encoding="UTF-8"?>
<svg width="98px" height="26px" viewBox="0 0 98 26" version="1.1" xmlns="http://www.w3.org/2000/svg" xmlns:xlink="http://www.w3.org/1999/xlink">
    <title>编组</title>
    <defs>
        <linearGradient x1="100%" y1="53.5193669%" x2="0%" y2="46.4806331%" id="linearGradient-1">
            <stop stop-color="#FE3876" offset="0%"></stop>
            <stop stop-color="#7C30DD" offset="71.4447846%"></stop>
            <stop stop-color="#3A30DD" offset="100%"></stop>
        </linearGradient>
    </defs>
    <g id="DVM" stroke="none" stroke-width="1" fill="none" fill-rule="evenodd">
        <g id="其他网络" transform="translate(-217.000000, -79.000000)">
            <g id="编组" transform="translate(217.000000, 79.000000)">
                <rect id="矩形" fill="url(#linearGradient-1)" x="0" y="0" width="98" height="26" rx="10"></rect>
                <path d="M18.8664628,6 C19.8167473,6 20.587156,6.75486641 20.587156,7.68607306 C20.587156,8.41514485 20.1148087,9.03619939 19.4536468,9.27140867 L19.453739,18.0056538 C20.6845988,17.9524073 21.8291647,17.7317209 22.8460839,17.3659371 L22.8460474,10.6698105 C22.1848855,10.4346012 21.7125382,9.81354667 21.7125382,9.08447489 C21.7125382,8.15326823 22.4829469,7.39840183 23.4332314,7.39840183 C24.3835159,7.39840183 25.1539246,8.15326823 25.1539246,9.08447489 C25.1539246,9.81354667 24.6815773,10.4346012 24.0204154,10.6698105 L24.0204705,16.8492719 C25.1511101,16.2503315 26.056907,15.4396979 26.6575648,14.4607542 C26.2500206,14.1008689 25.9938838,13.5797349 25.9938838,13 C25.9938838,11.9142985 26.8920472,11.0342466 28,11.0342466 C28.0909815,11.0342466 28.1805484,11.0401809 28.2683195,11.0516762 C29.7962654,8.4484154 33.0725099,6.87168145 36.9814857,6.83182435 L37.1335372,6.83105023 L43.412844,6.83105023 C43.7371213,6.83105023 44,7.08863982 44,7.40639269 C44,7.71279725 43.7555631,7.96325916 43.4473439,7.98075848 L43.412844,7.98173516 L42.2874618,7.98173516 L42.2875041,16.7285828 C42.9486737,16.9637745 43.420999,17.584795 43.420999,18.3139269 C43.420999,19.2450568 42.6505545,20 41.7003058,20 C40.7500571,20 39.9796126,19.2450568 39.9796126,18.3139269 C39.9796126,17.5847227 40.4520316,16.9636514 41.1133042,16.7285129 L41.1131498,7.98173516 L37.7205627,7.98173516 L37.7207355,16.7285828 C38.3819051,16.9637745 38.8542304,17.584795 38.8542304,18.3139269 C38.8542304,19.2450568 38.0837859,20 37.1335372,20 C36.1832885,20 35.412844,19.2450568 35.412844,18.3139269 C35.412844,17.584795 35.8851694,16.9637745 36.5463389,16.7285828 L36.546261,7.9943462 C35.3154012,8.04759271 34.1708353,8.26827909 33.1539161,8.63406292 L33.1539669,15.330181 C33.8151365,15.5653727 34.2874618,16.1863932 34.2874618,16.9155251 C34.2874618,17.846655 33.5170173,18.6015982 32.5667686,18.6015982 C31.6165199,18.6015982 30.8460754,17.846655 30.8460754,16.9155251 C30.8460754,16.1863932 31.3184007,15.5653727 31.9795703,15.330181 L31.9795295,9.15072808 C30.8488899,9.74966854 29.943093,10.5603021 29.3424352,11.5392458 C29.7499898,11.8990932 30.0061162,12.4202244 30.0061162,13 C30.0061162,14.0856253 29.1079164,14.9657534 28,14.9657534 C27.9090215,14.9657534 27.8194571,14.9598186 27.7316881,14.9483224 C26.2037544,17.551575 22.927502,19.1283184 19.0185143,19.1681756 L18.8664628,19.1689498 L12.587156,19.1689498 C12.2628787,19.1689498 12,18.9113602 12,18.5936073 C12,18.2872028 12.2444369,18.0367408 12.5526561,18.0192415 L12.587156,18.0182648 L13.7125382,18.0182009 L13.71254,9.27141928 C13.0513625,9.03621805 12.579001,8.4151558 12.579001,7.68607306 C12.579001,6.75486641 13.3494097,6 14.2996942,6 C15.2499787,6 16.0203874,6.75486641 16.0203874,7.68607306 C16.0203874,8.41508382 15.5481192,9.03609542 14.8870442,9.2713496 L14.8868502,18.0182009 L18.2792416,18.0182009 L18.2792788,9.27140867 C17.6181169,9.03619939 17.1457696,8.41514485 17.1457696,7.68607306 C17.1457696,6.75486641 17.9161783,6 18.8664628,6 Z" id="路径" fill="#FFFFFF"></path>
                <text id="dvm" font-family="PingFangSC-Regular, PingFang SC" font-size="16" font-weight="normal" fill="#FFFFFF">
                    <tspan x="44" y="19"> DSM</tspan>
                </text>
            </g>
        </g>
    </g>
</svg>