<?xml version="1.0" encoding="UTF-8"?>
<svg width="16px" height="16px" viewBox="0 0 16 16" version="1.1" xmlns="http://www.w3.org/2000/svg" xmlns:xlink="http://www.w3.org/1999/xlink">
    <title>币/KTON</title>
    <defs>
        <linearGradient x1="50%" y1="100%" x2="50%" y2="3.061617e-15%" id="linearGradient-1">
            <stop stop-color="#ABEC79" offset="0%"></stop>
            <stop stop-color="#72D444" offset="100%"></stop>
        </linearGradient>
        <linearGradient x1="50%" y1="0%" x2="50%" y2="98.134935%" id="linearGradient-2">
            <stop stop-color="#36B564" offset="0%"></stop>
            <stop stop-color="#598E69" offset="100%"></stop>
        </linearGradient>
        <linearGradient x1="50%" y1="100%" x2="50%" y2="-2.48949813e-15%" id="linearGradient-3">
            <stop stop-color="#499D6C" offset="0%"></stop>
            <stop stop-color="#1C8441" offset="100%"></stop>
        </linearGradient>
        <linearGradient x1="-1.11022302e-14%" y1="50%" x2="100%" y2="50%" id="linearGradient-4">
            <stop stop-color="#4C9B72" offset="0%"></stop>
            <stop stop-color="#25623E" offset="100%"></stop>
        </linearGradient>
        <linearGradient x1="50%" y1="0%" x2="50%" y2="98.0604227%" id="linearGradient-5">
            <stop stop-color="#B1F286" offset="0%"></stop>
            <stop stop-color="#6BD240" offset="100%"></stop>
        </linearGradient>
        <linearGradient x1="100%" y1="50%" x2="0%" y2="50%" id="linearGradient-6">
            <stop stop-color="#A6E579" offset="0%"></stop>
            <stop stop-color="#66B740" offset="100%"></stop>
        </linearGradient>
        <linearGradient x1="50%" y1="100%" x2="50%" y2="3.061617e-15%" id="linearGradient-7">
            <stop stop-color="#399163" offset="0%"></stop>
            <stop stop-color="#205A38" offset="100%"></stop>
        </linearGradient>
        <linearGradient x1="50%" y1="0%" x2="50%" y2="100%" id="linearGradient-8">
            <stop stop-color="#54A66D" offset="0%"></stop>
            <stop stop-color="#2A6D3B" offset="100%"></stop>
        </linearGradient>
        <linearGradient x1="50%" y1="0%" x2="50%" y2="100%" id="linearGradient-9">
            <stop stop-color="#B1F286" offset="0%"></stop>
            <stop stop-color="#79E14E" offset="100%"></stop>
        </linearGradient>
        <linearGradient x1="50%" y1="0%" x2="50%" y2="100%" id="linearGradient-10">
            <stop stop-color="#4C9D69" offset="0%"></stop>
            <stop stop-color="#256438" offset="100%"></stop>
        </linearGradient>
    </defs>
    <g id="币/KTON" stroke="none" stroke-width="1" fill="none" fill-rule="evenodd">
        <g id="编组" transform="translate(0.220224, 2.000000)" fill-rule="nonzero">
            <polygon id="Path" fill="url(#linearGradient-1)" points="2.52706238 -5.32907052e-16 3.77322758 1.4953762 8.8817842e-15 2.99075239"></polygon>
            <polygon id="Combined-Shape" fill="url(#linearGradient-2)" points="7.79786255 7.53510355 11.6376518 2.99075239 13.5960933 2.99075239 7.78793884 9.89796626"></polygon>
            <polygon id="Combined-Shape-Copy-16" fill="url(#linearGradient-3)" points="11.6376518 2.99075239 2.84217094e-15 2.99075239 3.77322758 1.4953762 12.377098 1.4953762 13.5960933 2.99075239"></polygon>
            <polygon id="Combined-Shape-Copy-16" fill="url(#linearGradient-4)" points="11.6376518 2.99075239 12.377098 1.4953762 13.5960933 2.99075239"></polygon>
            <polygon id="Combined-Shape" fill="url(#linearGradient-5)" points="12.377098 1.4953762 3.77322758 1.4953762 2.52706238 -3.55271368e-16 13.0657721 -3.55271368e-16"></polygon>
            <polygon id="Combined-Shape-Copy" fill="url(#linearGradient-6)" points="13.5960933 2.99075239 12.377098 1.4953762 13.0657721 -5.32907052e-16 15.5690629 2.99075239"></polygon>
            <polygon id="Combined-Shape-Copy" fill="url(#linearGradient-7)" points="7.78793884 9.89796626 13.5960933 2.99075239 15.5690629 2.99075239 9.76356812 9.86149593 7.80142763 12.1921075"></polygon>
            <polygon id="Combined-Shape-Copy" fill="url(#linearGradient-8)" points="5.49335928 7.19204742 7.78793884 9.89796626 7.80142763 12.1921075 2.55372454 5.98150479"></polygon>
            <polygon id="Combined-Shape-Copy" fill="url(#linearGradient-9)" points="5.49335928 7.19204742 2.55372454 5.98150479 6.48513569 5.98150479"></polygon>
            <polygon id="Combined-Shape" fill="url(#linearGradient-10)" points="6.48513569 5.98150479 5.49335928 7.19204742 7.78793884 9.89796626 7.79786255 7.53510355"></polygon>
        </g>
    </g>
</svg>