<?xml version="1.0" encoding="UTF-8"?>
<svg width="98px" height="26px" viewBox="0 0 98 26" version="1.1" xmlns="http://www.w3.org/2000/svg" xmlns:xlink="http://www.w3.org/1999/xlink">
    <title>编组备份</title>
    <g id="DVM" stroke="none" stroke-width="1" fill="none" fill-rule="evenodd">
        <g id="其他网络" transform="translate(-217.000000, -311.000000)">
            <g id="编组备份" transform="translate(217.000000, 311.000000)">
                <rect id="矩形" fill="#5745DE" x="0" y="0" width="98" height="26" rx="10"></rect>
                <path d="M28.2044426,13.2404436 C28.2406589,13.1859269 28.4775983,13.3130385 28.6143258,13.3211682 C28.7435414,13.3288512 28.477546,13.0557489 28.6143258,13.0927779 C28.8024193,13.1436984 29.3938133,13.5288832 29.5675318,13.7467849 C29.9278036,14.1986552 30.0121783,14.9113471 29.7442517,15.3669858 C29.7080816,15.4284819 29.6681963,15.480703 29.6289932,15.5267376 L29.5956601,15.5647527 L29.5178278,15.6493699 L29.4905103,15.6801829 C29.4344622,15.7456128 29.4002666,15.8034003 29.4160901,15.8733271 C29.463686,16.0837888 29.9193775,16.2066628 30.1734124,16.1772004 C30.5535278,16.1329193 30.9431064,15.6935231 31.2526054,15.0329129 L31.8864263,15.6385912 L30.8319368,17.0921227 L30.8212305,17.1082731 C30.7780977,17.179724 30.7773637,17.2693158 30.8193201,17.3414678 L30.8297603,17.3577925 L31.6940923,18.5916531 L30.9417049,20.3575848 C29.4808271,21.2656901 27.7703058,21.9944921 26.1092752,22 L27.3962568,20.9200394 L27.4122097,20.9093158 C27.4792668,20.8600205 27.5142596,20.7777389 27.5032509,20.6950233 L27.5001828,20.6773037 L27.1926179,19.2381992 L28.7610643,18.2945126 L28.7763029,18.2844945 C28.8402085,18.2387241 28.8761198,18.1629889 28.8711869,18.0843884 L28.8693176,18.0662113 L28.4483673,15.1258354 C28.5268957,15.0711225 28.9116812,14.8455542 28.8420577,14.3489246 C28.8227286,14.2110484 28.6541111,13.9492148 28.3362052,13.5634238 L28.3017964,13.5175585 C28.2142364,13.3982627 28.1626451,13.3033739 28.2044426,13.2404436 Z M27.3565946,14.7628415 C27.5377829,14.962877 27.7638378,15.1571494 28.0007921,15.2132861 L28.3969279,17.9809091 L26.8187411,18.9305829 L26.8025936,18.9412541 C26.7347057,18.9903735 26.6991069,19.0731487 26.7101466,19.1564371 L26.7132314,19.1742804 L27.020986,20.614778 L25.3119076,21.6623758 C24.8773257,21.6278551 23.1413971,21.5784254 20.9853079,20.6296581 C20.7305689,20.5175626 20.2371499,20.2130422 19.5050507,19.7160969 L21.4654482,19.9187546 L21.4838908,19.9225449 C21.6071443,19.9426804 21.7242427,19.8585805 21.7447427,19.7348381 L21.7469309,19.7177245 L21.9459153,17.5229892 L24.7297558,18.7638012 L24.7474319,18.770819 C24.842459,18.8040488 24.948348,18.7704904 25.0070796,18.6885314 L25.017525,18.6726013 L27.3565946,14.7628415 Z M31.806867,13.0277996 L32.1147176,13.5502295 L32.1255226,13.5668714 C32.167811,13.6262033 32.2359688,13.6617691 32.3087463,13.6623994 L32.3270246,13.6618227 L33.7922354,13.5566504 L34.5968482,15.4187549 C34.2807718,16.5692992 33.7297444,17.6686778 32.924869,18.6328531 C32.5339797,19.1011265 31.9197759,19.9312044 31.4609743,20.2870727 L32.1628242,18.6540022 L32.1697441,18.6356121 C32.1900644,18.5736701 32.1829847,18.505885 32.1503072,18.4495102 L32.1397378,18.4329574 L31.2960308,17.2288762 L32.3720388,15.7454965 L32.3825048,15.729751 C32.4342462,15.644508 32.4245975,15.5350741 32.3588693,15.4602664 L32.3449776,15.445784 L31.4393296,14.5803741 C31.6066313,14.11929 31.736155,13.5881487 31.806867,13.0277996 Z M23.5580788,13.3251613 L25.3883721,14.7528403 L25.4045184,14.7643543 C25.4924747,14.8215136 25.6085014,14.8108301 25.6846091,14.7385642 L25.6983949,14.7242942 L26.6272356,13.6763313 C26.7101976,13.8751026 26.8279036,14.0560023 26.9467695,14.2273425 L27.054108,14.3802681 L24.73053,18.2643083 L21.8403568,16.9760479 L21.823829,16.9694177 C21.6908353,16.9218654 21.5462362,17.0072215 21.5232372,17.1470414 L21.5210695,17.1640761 L21.3172768,19.4113635 L19.5119493,18.963608 C17.9890798,17.6112874 17.1517634,16.3395149 17,15.1482907 L18.2940009,15.6328749 C18.4562404,15.7025763 18.5671991,15.7083711 18.6268771,15.6502592 L20.0867337,13.9780251 L22.0793835,15.6608195 L22.0944049,15.6724954 C22.2019328,15.749234 22.3529215,15.7177612 22.421005,15.6042459 L22.4297633,15.5882604 L23.5580788,13.3251613 Z M26.260751,9.84804812 C26.4763445,9.76725849 26.69278,9.71213821 26.9018103,9.67666736 L26.9798334,9.6642751 L27.0570656,9.65365443 C27.0826671,9.65040163 27.1081207,9.64743234 27.1334103,9.64473479 L27.2087707,9.63744566 L27.2830504,9.63171647 C27.3690419,9.62591495 27.4526293,9.62315429 27.5331221,9.62293039 L27.6013419,9.62334796 L27.6679494,9.62493747 C27.6898724,9.62565479 27.7115105,9.62655568 27.7328477,9.62762838 L27.7959404,9.63135015 C27.8063,9.63205243 27.8165803,9.63279472 27.8267794,9.63357555 L27.8869823,9.63871132 L27.9451378,9.64470158 L28.0011494,9.65147577 L28.0549204,9.65896336 L28.1063541,9.6670938 L28.1553539,9.67579654 L28.2018231,9.68500104 L28.2456651,9.69463675 L28.2867832,9.70463312 C28.2934039,9.70632532 28.299907,9.7080296 28.3062906,9.70974451 L28.3431417,9.7201496 L28.3770274,9.73073899 L28.4078509,9.74144213 L28.4355156,9.75218848 L28.4599249,9.76290748 L28.4809821,9.77352861 C28.5132303,9.79110971 28.5311089,9.80798901 28.5326042,9.82269679 C28.5351662,9.84811664 28.4893477,9.87422507 28.4243676,9.90105911 L28.3785294,9.91905637 L28.3289376,9.93727105 L28.2261887,9.97436245 C28.1164707,10.0150282 28.0209628,10.0572765 28.0277227,10.1012188 C28.035086,10.1489904 28.1370972,10.1744433 28.2703119,10.191471 L28.3291294,10.1982933 L28.3906579,10.204327 L28.6416858,10.2254366 L28.7001221,10.2311729 C28.8322994,10.2452442 28.9322357,10.2647843 28.9364867,10.3036868 C28.9406548,10.3417378 28.8521244,10.3866584 28.7342523,10.4312154 L28.6779971,10.451728 L28.6189592,10.4720309 C28.6089646,10.4753884 28.5989117,10.4787307 28.5888294,10.4820543 L28.3304782,10.5648691 L28.2838132,10.5805953 C28.2765728,10.583111 28.2696202,10.585572 28.2629842,10.5879748 L28.2271986,10.6016679 C28.195674,10.6146108 28.1776242,10.6252243 28.1792782,10.6327972 C28.1814986,10.6430748 28.218868,10.6431961 28.2740734,10.6388514 L28.3185512,10.6348443 L28.4758848,10.6181089 L28.5579525,10.6103901 L28.6102044,10.6067072 C28.7029557,10.6014353 28.7762382,10.6052013 28.785045,10.6327972 C28.7927761,10.6571405 28.7488529,10.6951863 28.6852964,10.7360349 L28.6488747,10.7585284 L28.6097135,10.7811847 L28.5483615,10.8146147 L28.507404,10.8359583 L28.4488919,10.8650957 L28.3280308,10.9252812 L28.2704473,10.9551824 C28.2606515,10.9603833 28.2507599,10.9656921 28.2407773,10.9711077 L28.1798307,11.0048734 C28.1488518,11.0223876 28.1171444,11.0408419 28.0848435,11.0602051 L28.0194902,11.1001343 L27.9527936,11.1424318 C27.9303642,11.1569196 27.9077509,11.1717928 27.8849936,11.1870423 L27.8163299,11.2339102 C27.781822,11.2578993 27.7470801,11.2827142 27.712239,11.3083237 L27.6424646,11.3605928 L27.5726654,11.4149253 C27.049678,11.8300184 26.5448267,12.4145346 26.5131918,13.0632127 C26.5122733,13.0819921 26.5117617,13.1006138 26.5116408,13.1190819 L25.4995819,14.2608885 L23.6184129,12.7935473 L23.6033325,12.7827188 C23.4956453,12.7117415 23.3497282,12.7451328 23.2834436,12.856081 L23.2749095,12.8716885 L22.1515742,15.1245841 L20.2093111,13.4843004 L20.1939528,13.4723978 C20.1049067,13.4092206 19.9830938,13.4185275 19.9046184,13.4945041 L19.8912352,13.5086026 L18.472083,15.1350363 L17.3451044,13.7873187 C17.1990046,13.4030097 17.1978357,12.7147154 17.3415978,11.722436 C17.557241,10.2340168 17.8715954,9.40091716 18.0247935,9.0959474 L18.376258,11.2179587 L18.3818129,11.2341383 C18.4323959,11.3656883 18.5900341,11.4200832 18.7105868,11.3477527 L18.7254523,11.3380478 L20.4563983,10.1125127 L21.243045,11.4931638 L21.2526543,11.5086025 C21.3234347,11.6129924 21.4662761,11.6397516 21.5698592,11.5680262 L21.5843777,11.5571074 L23.1954435,10.2442939 L23.6328829,11.033986 L23.6421279,11.0492837 C23.7197495,11.167332 23.8860514,11.1864248 23.9882711,11.0891978 L24.0012281,11.075855 L24.4614545,10.5631431 C24.7719743,10.5645653 25.0109789,10.518603 25.1784683,10.4252562 L25.2370265,10.3919034 L25.3272864,10.3383939 L25.5519282,10.2020162 L25.6554857,10.1408216 L25.7273416,10.0997838 L25.8016333,10.0588673 C25.9401632,9.98412995 26.0917607,9.91136431 26.260751,9.84804812 Z M33.4773692,9.66947955 L33.8456725,9.88403744 L34.2460027,10.1194857 L34.5301424,10.2884617 C34.9467454,11.6900978 35.1467973,13.4569562 34.8769525,14.9199003 L34.1458689,13.2264516 L34.1375005,13.2091158 C34.0981582,13.1356587 34.0217823,13.0894549 33.9385757,13.0888761 L33.9206522,13.0894572 L32.4350814,13.1961735 L31.8652836,12.2293556 C31.8728766,11.8411012 31.8495848,11.4482703 31.7890563,11.0631988 C31.7524599,10.8303882 31.7013335,10.5945705 31.6361201,10.3585248 L32.4600801,10.5616824 L32.4798272,10.5656338 C32.5458333,10.5758253 32.6130635,10.5563942 32.6635382,10.5125369 L32.6781599,10.4986522 L33.4773692,9.66947955 Z M23.8319564,6.58365398 C24.8567498,6.69784913 25.1898419,6.83843479 25.9262129,7.14550556 C26.1631553,7.24432244 26.4042086,7.34628433 26.6493729,7.45139125 L27.0202027,7.61141038 L27.1344889,7.65376002 L27.2047855,7.68081168 L27.2703669,7.70691821 L27.3312329,7.7320796 L27.3873835,7.75629585 L27.4388189,7.77956696 L27.4855389,7.80189292 C27.4929326,7.80553516 27.5001298,7.80913801 27.5071306,7.81270148 L27.5467776,7.83360974 C27.6089266,7.86766922 27.6514283,7.89779062 27.6742828,7.92397394 C27.8182093,8.08898594 27.8042038,8.4081614 27.699561,8.58219482 C27.5971342,8.75265608 27.404576,8.79809901 27.1444398,8.81012511 L27.078011,8.81248846 L27.0088447,8.8137775 L26.9001339,8.8143925 L26.7410416,8.81443241 L26.651364,8.81494166 L26.5588619,8.8163516 C26.198994,8.8240383 25.7792301,8.86116231 25.3267087,9.03794768 C25.3046737,9.04655564 25.2825671,9.05549232 25.260423,9.06474078 L25.1939132,9.09340451 C25.1717287,9.10325955 25.1495411,9.1134094 25.1273847,9.12383709 L25.0610431,9.15593673 L24.995094,9.18960165 C24.9294097,9.22401529 24.8646225,9.26062417 24.8016573,9.29897029 L24.7393337,9.33787852 C24.3283488,9.60090102 23.9458223,10.6946796 23.8761341,10.5324083 C23.8296753,10.4242274 23.6915306,10.1748904 23.4617002,9.78439735 L23.4521997,9.76872582 C23.3820912,9.66272826 23.2380648,9.63484558 23.1336546,9.70705733 L23.1190206,9.71805658 C22.1520092,10.5975289 21.6141128,11.0357855 21.5053314,11.0328264 C21.3965499,11.0298474 21.1372964,10.5748402 20.7275708,9.66780501 L20.7179602,9.65236908 C20.6504983,9.5529286 20.5168219,9.52316153 20.4137363,9.58462444 L20.398515,9.59453079 C19.3474083,10.4040934 18.7879602,10.8001198 18.7201705,10.7826099 C18.6523808,10.7650999 18.5754702,10.3551393 18.4894388,9.55272803 C18.7415635,9.21375242 18.9704749,8.93820453 19.1761729,8.72608436 L19.2631693,8.63822558 L19.3127001,8.59046679 L19.3668094,8.53998103 L19.4335184,8.47970645 L19.4916658,8.42870164 L19.5798125,8.35379678 L19.6283643,8.3136801 L19.7067009,8.25054006 L19.7625513,8.20665941 L19.8516868,8.13848222 L19.9146373,8.09164935 L19.980372,8.04386287 L20.0488594,7.99525267 L20.1200675,7.94594862 C20.1321605,7.93768067 20.1443655,7.92938923 20.1566819,7.92107699 L20.2319115,7.87097569 L20.3097825,7.82050524 C20.3361761,7.80363466 20.3630047,7.78672421 20.3902629,7.76979552 L20.473321,7.7189764 C20.4873771,7.71050465 20.5015392,7.70203375 20.5158068,7.6935664 L20.6026718,7.64282672 C20.6614182,7.60905759 20.72183,7.575432 20.7838649,7.54212312 L20.8781293,7.49241897 C21.3632138,7.24130118 22.0062562,7.08209235 22.579431,6.92623945 C22.6804035,6.89878387 22.2322593,6.59950173 22.3516992,6.58365398 C22.4992778,6.56407266 22.8071629,6.46945882 23.8319564,6.58365398 Z M31.1775597,7.42207481 L33.4008321,7.86790412 L33.4045862,7.87338549 C33.7678569,8.41778406 34.2996737,9.04980639 34.5353547,9.66692318 L34.0140129,9.45325687 L33.5513458,9.18472012 L33.5341127,9.17569544 C33.452532,9.13730498 33.3557635,9.15091293 33.287857,9.21032485 L33.2737634,9.22375479 L32.441723,10.0866951 L31.4729751,9.84785664 C31.3229123,9.43469708 31.1302696,9.02703877 30.8974581,8.6399979 L31.1775597,7.42207481 Z M30.8220057,5.3544926 C31.6627487,5.87859399 32.5529688,6.48052156 33.1689634,7.26882491 L31.0501725,6.93067463 L31.0329467,6.9278928 C30.9243876,6.914572 30.8214114,6.98101772 30.7884456,7.08551299 L30.7836106,7.10327402 L30.549844,8.11899125 C30.1880238,7.62896863 29.7557326,7.18872952 29.2588146,6.8349111 L29.0014678,5.63115218 L30.8220057,5.3544926 Z M24.515152,7.61141038 C24.3893792,7.61141038 24.2874201,7.71366421 24.2874201,7.83980069 C24.2874201,7.96593718 24.3893792,8.068191 24.515152,8.068191 C24.6409249,8.068191 24.7428839,7.96593718 24.7428839,7.83980069 C24.7428839,7.71366421 24.6409249,7.61141038 24.515152,7.61141038 Z M27.9503667,4.17550128 C28.7019539,4.35796782 30.1318608,4.96646073 30.1785066,4.99034172 L28.6940763,5.21588938 L28.6774073,5.2190509 C28.5627887,5.24519566 28.4867281,5.35526781 28.5024601,5.4720058 L28.505515,5.48955684 L28.7217475,6.50111486 C28.6595256,6.46776809 28.5964749,6.4357326 28.5326042,6.40506417 C28.1875834,6.23936267 27.8059802,6.1074893 27.4030842,6.00542836 L26.6677955,5.0305569 L27.9503667,4.17550128 Z M24.4020892,4.2232455 L23.8513105,4.71409683 L23.8390476,4.72585315 C23.7575499,4.80994135 23.7531501,4.94283818 23.8284938,5.03214367 L23.8417899,5.04660846 L24.519385,5.72397765 C24.0592777,5.73737199 23.6150434,5.77552629 23.2066407,5.83319855 L23.0708386,5.85329608 L23.0007001,5.86433853 L22.558701,5.93689264 L22.4464706,5.95445987 L22.3352163,5.97084197 L22.2620011,5.98086877 L22.1898376,5.99001455 L22.118973,5.99813759 L22.0496546,6.00509618 L21.9821295,6.0107486 C21.9710385,6.01157394 21.9600325,6.01233896 21.9491167,6.0130407 L21.8847449,6.01646813 C21.6213812,6.02738819 21.4208098,5.99506679 21.3634908,5.87337153 C21.3438264,5.83162428 21.3816226,5.73538574 21.4759159,5.60961228 L21.5043934,5.5728949 C21.5194,5.55415592 21.5355576,5.53486271 21.5528637,5.515088 L21.5890059,5.47491816 L21.6282054,5.43359371 C21.6349931,5.42661727 21.641908,5.4195981 21.64895,5.41253892 L21.6927259,5.36972506 C21.7078256,5.35530805 21.7234328,5.3407525 21.7395465,5.32607996 L21.7894068,5.28173297 C21.8322222,5.24452061 21.8781988,5.20671186 21.9273236,5.16864355 L21.9877835,5.12285854 C22.2769742,4.90881501 22.6647279,4.69085727 23.1487607,4.52814118 C23.5143067,4.40525652 23.9320828,4.30362463 24.4020892,4.2232455 Z M27.0936804,4 C27.1723709,4.01329244 27.2505115,4.02723128 27.3281022,4.04181651 L26.2141921,4.7844721 L26.2004171,4.7944024 C26.1077869,4.86649689 26.085118,4.99801474 26.147982,5.09706294 L26.1586209,5.1124189 L26.7255238,5.8640835 C26.2144076,5.77842714 25.684286,5.73335744 25.1623996,5.72171982 L24.334627,4.89446409 L25.2138948,4.11111076 C25.7801303,4.04951318 26.4067255,4.01247626 27.0936804,4 Z" id="形状" fill="#FFFFFF" fill-rule="nonzero" transform="translate(26.000000, 13.000000) scale(-1, 1) translate(-26.000000, -13.000000) "></path>
                <text id="dvm" font-family="PingFangSC-Regular, PingFang SC" font-size="16" font-weight="normal" fill="#FFFFFF">
                    <tspan x="39" y="19"> DVM</tspan>
                </text>
            </g>
        </g>
    </g>
</svg>