<?xml version="1.0" encoding="UTF-8"?>
<svg width="16px" height="16px" viewBox="0 0 16 16" version="1.1" xmlns="http://www.w3.org/2000/svg" xmlns:xlink="http://www.w3.org/1999/xlink">
    <title>币/RING</title>
    <defs>
        <linearGradient x1="-2.22044605e-14%" y1="50%" x2="100%" y2="50%" id="linearGradient-1">
            <stop stop-color="#929297" offset="0%"></stop>
            <stop stop-color="#88878D" offset="78.0357361%"></stop>
            <stop stop-color="#BAB9C6" offset="100%"></stop>
        </linearGradient>
        <linearGradient x1="-1.11022302e-14%" y1="50%" x2="100%" y2="50%" id="linearGradient-2">
            <stop stop-color="#919FB7" offset="0%"></stop>
            <stop stop-color="#F8FAFE" offset="100%"></stop>
        </linearGradient>
    </defs>
    <g id="币/RING" stroke="none" stroke-width="1" fill="none" fill-rule="evenodd">
        <path d="M7.83979164,4.0903277 C5.4034812,4.08030538 3.24962007,5.30630841 1.94599312,7.16752664 C1.41809457,7.92098021 1.02956611,8.78050998 0.818169985,9.70795653 C0.80612525,9.53772972 0.8,9.36585778 0.8,9.19254757 C0.8,5.23842812 3.98842189,2.03298097 7.92152866,2.03298097 C12.1948254,2.03298097 15.2,4.99894069 15.2,8.65763742 C15.2,11.5063151 13.3781881,13.9350384 10.8217336,14.8708245 C10.2004241,15.0838889 9.56560385,15.2 8.90380848,15.2 C5.82965222,15.2 3.17384289,12.694593 3.17384289,9.60401691 C3.17384289,9.07305422 3.24739817,8.55936305 3.5485367,8.07268048 C3.43553201,8.3728745 3.41941284,8.59565736 3.41941284,8.82222516 C3.41941284,11.3901303 5.57190811,13.3895349 8.12617029,13.3895349 C10.6804325,13.3895349 12.7510711,11.3078364 12.7510711,8.73993129 C12.7510711,6.56525662 11.2660421,4.73928166 9.25987294,4.23104374 C8.85093421,4.14883726 8.43285295,4.09227655 7.83979164,4.0903277 Z" id="Combined-Shape-Copy-34" fill="url(#linearGradient-1)" transform="translate(8.000000, 8.616490) scale(-1, -1) translate(-8.000000, -8.616490) "></path>
        <path d="M7.83979164,2.85734672 C5.4034812,2.84732441 3.24962007,4.07332744 1.94599312,5.93454567 C1.41809457,6.68799924 1.02956611,7.54752901 0.818169985,8.47497555 C0.80612525,8.30474875 0.8,8.13287681 0.8,7.9595666 C0.8,4.00544715 3.98842189,0.8 7.92152866,0.8 C12.1948254,0.8 15.2,3.76595972 15.2,7.42465645 C15.2,10.2733342 13.3781881,12.7020574 10.8217336,13.6378436 C10.2004241,13.8509079 9.56560385,13.967019 8.90380848,13.967019 C5.82965222,13.967019 3.17384289,11.4616121 3.17384289,8.37103594 C3.17384289,7.84007325 3.24739817,7.32638208 3.5485367,6.83969951 C3.43553201,7.13989353 3.41941284,7.36267638 3.41941284,7.58924419 C3.41941284,10.1571493 5.57190811,12.1565539 8.12617029,12.1565539 C10.6804325,12.1565539 12.7510711,10.0748555 12.7510711,7.50695032 C12.7510711,5.33227564 11.2660421,3.50630069 9.25987294,2.99806277 C8.85093421,2.91585628 8.43285295,2.85929558 7.83979164,2.85734672 Z" id="Combined-Shape-Copy-41" fill="url(#linearGradient-2)"></path>
    </g>
</svg>